<svg xmlns="http://www.w3.org/2000/svg" viewBox="0 0 192 192">
  <rect width="192" height="192" rx="32" fill="#1565C0"/>
  <rect x="36" y="52" width="120" height="108" rx="8" fill="white"/>
  <rect x="36" y="52" width="120" height="32" rx="8" fill="#1976D2"/>
  <rect x="36" y="68" width="120" height="16" fill="#1976D2"/>
  <rect x="60" y="32" width="12" height="32" rx="6" fill="white"/>
  <rect x="120" y="32" width="12" height="32" rx="6" fill="white"/>
  <!-- Grid lines -->
  <line x1="36" y1="108" x2="156" y2="108" stroke="#E0E0E0" stroke-width="2"/>
  <line x1="36" y1="130" x2="156" y2="130" stroke="#E0E0E0" stroke-width="2"/>
  <line x1="70" y1="84" x2="70" y2="160" stroke="#E0E0E0" stroke-width="2"/>
  <line x1="104" y1="84" x2="104" y2="160" stroke="#E0E0E0" stroke-width="2"/>
  <line x1="138" y1="84" x2="138" y2="160" stroke="#E0E0E0" stroke-width="2"/>
  <!-- Sample filled cells -->
  <rect x="42" y="114" width="22" height="10" rx="3" fill="#43A047"/>
  <rect x="76" y="114" width="22" height="10" rx="3" fill="#1E88E5"/>
  <rect x="110" y="114" width="22" height="10" rx="3" fill="#9E9E9E"/>
  <rect x="42" y="136" width="22" height="10" rx="3" fill="#FB8C00"/>
  <rect x="76" y="136" width="22" height="10" rx="3" fill="#43A047"/>
</svg>
