<svg xmlns="http://www.w3.org/2000/svg" viewBox="0 0 512 512">
  <rect width="512" height="512" rx="80" fill="#1565C0"/>
  <rect x="96" y="140" width="320" height="288" rx="20" fill="white"/>
  <rect x="96" y="140" width="320" height="84" rx="20" fill="#1976D2"/>
  <rect x="96" y="184" width="320" height="40" fill="#1976D2"/>
  <rect x="160" y="84" width="32" height="84" rx="16" fill="white"/>
  <rect x="320" y="84" width="32" height="84" rx="16" fill="white"/>
  <!-- Grid lines -->
  <line x1="96" y1="288" x2="416" y2="288" stroke="#E0E0E0" stroke-width="4"/>
  <line x1="96" y1="348" x2="416" y2="348" stroke="#E0E0E0" stroke-width="4"/>
  <line x1="188" y1="224" x2="188" y2="428" stroke="#E0E0E0" stroke-width="4"/>
  <line x1="282" y1="224" x2="282" y2="428" stroke="#E0E0E0" stroke-width="4"/>
  <line x1="374" y1="224" x2="374" y2="428" stroke="#E0E0E0" stroke-width="4"/>
  <!-- Sample filled cells -->
  <rect x="108" y="300" width="68" height="26" rx="8" fill="#43A047"/>
  <rect x="200" y="300" width="68" height="26" rx="8" fill="#1E88E5"/>
  <rect x="294" y="300" width="68" height="26" rx="8" fill="#9E9E9E"/>
  <rect x="108" y="360" width="68" height="26" rx="8" fill="#FB8C00"/>
  <rect x="200" y="360" width="68" height="26" rx="8" fill="#43A047"/>
  <rect x="294" y="360" width="68" height="26" rx="8" fill="#6D4C41"/>
</svg>
